<?xml version="1.0" encoding="utf-8" ?>
<svg baseProfile="full" height="264px" preserveAspectRatio="xMidYMid meet" style="font-family: times, serif; font-weight:normal; font-style: normal; font-size: 16px;" version="1.1" viewBox="0,0,240.0,264.0" width="240px" xmlns="http://www.w3.org/2000/svg" xmlns:ev="http://www.w3.org/2001/xml-events" xmlns:xlink="http://www.w3.org/1999/xlink"><defs /><svg width="100%" x="0" y="0em"><defs /><text text-anchor="middle" x="50%" y="1em">ROOT</text></svg><svg width="100%" x="0%" y="3em"><defs /><svg width="100%" x="0" y="0em"><defs /><text text-anchor="middle" x="50%" y="1em">S</text></svg><svg width="20%" x="0%" y="3em"><defs /><svg width="100%" x="0" y="0em"><defs /><text text-anchor="middle" x="50%" y="1em">NP</text></svg><svg width="100%" x="0%" y="3em"><defs /><svg width="100%" x="0" y="0em"><defs /><text text-anchor="middle" x="50%" y="1em">DT</text></svg><svg width="100%" x="0%" y="3em"><defs /><svg width="100%" x="0" y="0em"><defs /><text text-anchor="middle" x="50%" y="1em">that</text></svg></svg><line stroke="black" x1="50%" x2="50%" y1="1.2em" y2="3em" /></svg><line stroke="black" x1="50%" x2="50%" y1="1.2em" y2="3em" /></svg><line stroke="black" x1="50%" x2="10%" y1="1.2em" y2="3em" /><svg width="70%" x="20%" y="3em"><defs /><svg width="100%" x="0" y="0em"><defs /><text text-anchor="middle" x="50%" y="1em">VP</text></svg><svg width="23.8095%" x="0%" y="3em"><defs /><svg width="100%" x="0" y="0em"><defs /><text text-anchor="middle" x="50%" y="1em">VBZ</text></svg><svg width="100%" x="0%" y="3em"><defs /><svg width="100%" x="0" y="0em"><defs /><text text-anchor="middle" x="50%" y="1em">is</text></svg></svg><line stroke="black" x1="50%" x2="50%" y1="1.2em" y2="3em" /></svg><line stroke="black" x1="50%" x2="11.9048%" y1="1.2em" y2="3em" /><svg width="76.1905%" x="23.8095%" y="3em"><defs /><svg width="100%" x="0" y="0em"><defs /><text text-anchor="middle" x="50%" y="1em">ADJP</text></svg><svg width="56.25%" x="0%" y="3em"><defs /><svg width="100%" x="0" y="0em"><defs /><text text-anchor="middle" x="50%" y="1em">RB</text></svg><svg width="100%" x="0%" y="3em"><defs /><svg width="100%" x="0" y="0em"><defs /><text text-anchor="middle" x="50%" y="1em">exactly</text></svg></svg><line stroke="black" x1="50%" x2="50%" y1="1.2em" y2="3em" /></svg><line stroke="black" x1="50%" x2="28.125%" y1="1.2em" y2="3em" /><svg width="43.75%" x="56.25%" y="3em"><defs /><svg width="100%" x="0" y="0em"><defs /><text text-anchor="middle" x="50%" y="1em">JJ</text></svg><svg width="100%" x="0%" y="3em"><defs /><svg width="100%" x="0" y="0em"><defs /><text text-anchor="middle" x="50%" y="1em">right</text></svg></svg><line stroke="black" x1="50%" x2="50%" y1="1.2em" y2="3em" /></svg><line stroke="black" x1="50%" x2="78.125%" y1="1.2em" y2="3em" /></svg><line stroke="black" x1="50%" x2="61.9048%" y1="1.2em" y2="3em" /></svg><line stroke="black" x1="50%" x2="55%" y1="1.2em" y2="3em" /><svg width="10%" x="90%" y="3em"><defs /><svg width="100%" x="0" y="0em"><defs /><text text-anchor="middle" x="50%" y="1em">.</text></svg><svg width="100%" x="0%" y="3em"><defs /><svg width="100%" x="0" y="0em"><defs /><text text-anchor="middle" x="50%" y="1em">.</text></svg></svg><line stroke="black" x1="50%" x2="50%" y1="1.2em" y2="3em" /></svg><line stroke="black" x1="50%" x2="95%" y1="1.2em" y2="3em" /></svg><line stroke="black" x1="50%" x2="50%" y1="1.2em" y2="3em" /></svg>